<svg t="1504806602080" class="icon" style="" viewBox="0 0 1024 1024" version="1.1" xmlns="http://www.w3.org/2000/svg" p-id="2344" xmlns:xlink="http://www.w3.org/1999/xlink" width="26" height="26"><defs><style type="text/css"></style></defs><path d="M199.605076 467.540416 197.926785 462.370673 196.584152 455.590246 195.643695 451.863365 195.643695 447.196065 195.643695 441.62314 195.643695 436.588473 197.255468 430.612365 198.934783 424.234097 201.08279 417.620469 204.004449 410.201499 207.864518 402.479631 213.303614 394.758786 213.303614 389.352659 213.839848 384.2832 214.646246 377.401466 216.995854 369.71439 219.144885 361.355001 220.856946 357.493044 222.837125 353.936031 225.389355 349.940021 228.142161 347.019505 228.142161 341.581656 228.142161 335.471494 228.142161 327.884702 229.753935 318.081429 231.364685 306.666448 234.252573 292.970518 238.213954 278.80182 241.16836 270.946922 244.088995 262.452457 247.278771 254.497275 251.106093 246.003833 254.999933 236.704027 259.499595 227.976248 264.535491 218.642672 270.91402 209.376635 273.834655 204.073862 276.990661 199.674669 283.806159 189.838649 290.788464 180.036399 298.778766 169.963996 307.306326 160.094208 316.572743 150.426011 326.241336 140.488685 337.924902 129.746016 345.37897 123.233696 354.408993 116.183116 363.575123 109.938901 373.511833 103.963817 383.047391 98.658997 393.790499 94.294596 405.204924 88.856747 416.551808 85.129866 427.899716 81.268932 440.120539 77.441766 452.341363 74.521251 465.233502 72.136947 478.258677 69.989027 491.084299 68.277036 503.975416 66.531276 517.673954 65.75868 530.698105 65.75868 544.196067 65.75868 558.161699 65.75868 571.659661 67.470671 585.22107 69.083401 599.052643 70.526263 611.878266 73.614601 625.440698 76.501348 638.166032 79.792301 652.098917 83.551928 664.856998 88.050382 677.075775 93.220125 690.10402 98.658997 702.020909 104.634082 713.570416 111.281479 724.883529 118.600165 734.686181 125.347846 739.185843 129.20878 743.954645 131.961474 753.017416 139.683343 760.674107 147.136082 768.260186 154.824181 775.714254 163.316599 781.823642 171.541935 789.075087 180.036399 794.178524 189.167361 799.314709 197.292412 804.787574 206.724225 809.286213 214.950584 816.940857 232.339626 820.699614 241.337557 823.622297 249.730715 826.541909 258.726599 829.16168 267.254833 831.041571 274.538727 833.391178 283.167245 837.555181 298.543444 840.2077 311.971267 841.917714 324.996932 843.396452 335.471494 845.747083 351.384929 846.283318 353.936031 848.162185 356.822778 853.200128 365.080859 856.421627 370.621039 859.309516 376.494817 863.002779 382.706285 866.225302 390.160047 868.305769 397.847124 870.588859 406.206512 872.334691 414.834007 873.141089 419.063331 873.812405 424.234097 873.812405 428.765297 873.141089 433.29752 873.141089 438.871469 871.797433 444.309318 869.382331 454.784904 866.627478 460.0887 864.614553 466.063785 864.614553 467.540416 865.553986 469.388507 868.305769 473.78463 880.259499 491.443825 889.725469 504.671081 894.225131 513.601474 900.335542 523.268648 905.638532 533.878287 911.750991 545.291221 917.860379 558.049802 924.743418 572.518329 928.602464 581.415976 932.161669 590.009701 935.25218 599.209224 938.274127 607.398744 940.556194 616.061031 942.904778 624.152313 945.859184 639.963417 948.209814 656.144958 949.820564 670.445662 949.820564 678.301584 949.820564 684.680874 949.820564 690.655959 948.746049 697.840592 947.20284 710.162222 945.054832 721.306027 941.763744 731.378429 940.556194 735.50747 938.274127 740.409107 936.324649 743.867882 933.773442 748.129952 931.489329 750.783385 928.602464 754.241137 926.051257 756.992807 923.300498 759.409856 920.008387 760.854764 917.052957 762.297626 914.637856 763.102968 912.522595 763.102968 910.943569 763.102968 908.561215 762.297626 904.027782 760.081145 901.948339 758.603491 899.799308 756.992807 897.413883 754.877633 895.031529 752.495376 891.070148 748.129952 886.368887 741.885737 882.675624 735.50747 878.983384 730.337727 875.391432 724.361619 870.320742 713.754027 864.614553 702.70846 863.943236 702.338023 863.002779 702.338023 860.652149 704.050014 859.309516 706.97053 857.09499 710.530612 853.200128 721.306027 847.357833 736.581941 839.837248 754.877633 834.198599 764.042363 828.254994 773.576507 821.236872 784.320199 813.783828 794.861276 809.957529 799.62886 805.324832 804.799626 794.680988 815.273165 795.622468 816.21256 797.064366 817.690214 802.369403 820.84609 824.528983 831.454706 834.198599 836.893578 843.396452 842.197374 852.527788 848.844771 860.652149 855.760275 864.614553 858.814844 867.569982 862.407672 870.588859 866.502943 873.141089 871.035166 874.485769 874.761024 876.163036 879.259478 876.836399 883.087667 877.639727 887.618866 876.836399 890.675482 876.836399 893.695259 876.163036 896.918673 874.485769 899.806443 873.812405 902.088416 872.334691 904.84111 868.305769 910.313751 864.614553 914.711921 861.727687 918.000827 859.309516 920.417877 853.200128 924.916331 846.283318 928.777265 838.898837 932.504146 831.041571 936.062182 822.178352 939.487188 817.479138 940.962795 813.247593 942.172343 803.040719 944.555623 792.431669 946.80485 781.823642 949.08887 770.275159 950.935937 758.323476 951.438381 746.101629 952.915012 734.014865 952.915012 721.257807 952.915012 708.164067 952.915012 694.467576 952.10967 681.708472 950.935937 668.01198 949.08887 654.382007 947.611216 640.013176 945.597349 626.113038 942.172343 612.550605 939.487188 599.052643 935.660023 585.22107 930.758386 571.659661 926.629345 564.540228 924.245042 558.161699 921.962046 554.133801 920.417877 550.171397 919.612535 545.000419 919.612535 538.89103 919.612535 525.866879 918.67314 519.251957 918.000827 510.758167 917.062456 505.319072 921.962046 497.865004 926.629345 487.794235 931.563728 476.647927 937.674912 469.866199 940.962795 462.815331 943.616228 447.170384 949.995519 438.676595 952.10967 429.78063 954.526719 417.425748 956.877253 409.703563 957.547519 401.511661 958.218808 392.984101 959.160249 383.047391 959.562409 373.511833 959.562409 363.575123 959.562409 342.457311 959.562409 319.527149 959.160249 297.302075 956.877253 286.021708 955.332061 275.143518 953.721377 264.535491 952.10967 253.926441 949.995519 244.088995 946.80485 234.252573 944.555623 225.389355 940.962795 216.995854 937.674912 209.207151 933.914262 202.426446 929.818991 195.643695 924.916331 193.361629 922.500305 190.339682 919.612535 188.056592 917.062456 185.975102 914.174686 184.094188 911.220401 182.617497 908.33263 180.502236 902.088416 179.730632 898.898771 178.790175 895.306966 178.790175 892.016013 179.730632 888.291179 179.730632 884.564297 180.502236 880.83844 180.502236 878.588189 180.502236 873.420493 180.871665 869.422436 182.617497 864.891236 184.094188 860.392782 186.7815 854.954933 188.727908 852.838735 190.339682 850.456479 194.569179 845.285712 197.926785 842.599534 201.08279 840.753489 204.004449 838.371232 208.669893 836.893578 212.363157 834.676074 216.995854 832.260048 222.30089 830.681086 227.604904 829.070402 233.715315 827.759547 239.556586 826.954205 246.473396 826.015833 253.926441 825.477574 255.906619 824.807309 256.308795 824.807309 257.250276 824.001967 257.250276 823.129086 255.906619 821.24825 251.911468 819.368436 241.974758 810.774711 235.327089 805.469891 227.604904 798.688441 219.816201 791.134395 211.69184 781.433452 202.426446 770.555707 198.934783 764.713652 194.301062 758.603491 190.339682 751.554958 186.7815 743.867882 181.94618 736.581941 178.790175 728.187761 175.063141 719.863165 171.33713 710.530612 168.584324 701.667757 166.033117 690.655959 165.227742 690.252777 164.455114 690.252777 164.051915 689.446411 163.111458 689.446411 161.533455 690.252777 160.72808 690.655959 159.654588 692.503027 159.251389 694.752254 158.446014 696.767144 157.03584 700.05605 152.469661 708.180078 150.11903 713.082738 146.39302 717.312062 142.397869 722.481805 138.032265 728.187761 133.399568 733.259266 127.960473 738.15988 122.89183 742.792387 117.352446 746.385215 111.242035 750.245126 105.400764 752.495376 98.484977 754.241137 91.703249 754.877633 91.031933 754.877633 90.091476 754.877633 88.547243 754.241137 87.337646 751.554958 85.323697 750.245126 82.704949 743.867882 81.094199 740.409107 79.348367 735.50747 77.904423 730.337727 77.131795 725.301014 74.982764 713.754027 74.177389 706.97053 74.177389 700.05605 74.177389 684.680874 74.982764 668.097174 76.32642 659.56894 77.904423 650.841162 79.348367 641.407302 81.899574 632.644731 84.786439 622.540605 87.740845 612.736309 91.703249 602.632183 95.42926 592.962963 100.565444 583.127967 105.400764 572.518329 111.242035 562.548256 118.124051 551.805588 125.141149 542.135344 132.460135 531.393699 138.570547 523.94096 146.39302 515.312442 154.618692 506.684948 158.446014 502.589676 163.111458 497.922377 169.859416 492.048599 176.776226 486.10626 188.056592 476.001111 196.584152 469.789643Z" fill="#1296db" p-id="2345"></path></svg>
