<svg t="1504806683459" class="icon" style="" viewBox="0 0 1024 1024" version="1.1" xmlns="http://www.w3.org/2000/svg" p-id="3763" xmlns:xlink="http://www.w3.org/1999/xlink" width="32" height="32"><defs><style type="text/css"></style></defs><path d="M667.836743 365.172957c10.234085 0 20.3597 0.750083 30.401404 1.86958-27.317159-127.20003-163.305343-221.706451-318.531684-221.706451-173.539428 0-315.694055 118.290103-315.694055 268.49508 0 86.701664 47.294143 157.902286 126.32715 213.125005l-31.575136 94.969978 110.36255-55.344492c39.489386 7.819083 71.172993 15.855106 110.580514 15.855106 9.906627 0 19.730367-0.490164 29.473265-1.255597-6.167466-21.10876-9.742898-43.213197-9.742898-66.151629C399.43683 477.105259 517.876336 365.172957 667.836743 365.172957zM498.091734 279.577486c23.769356 0 39.515992 15.637142 39.515992 39.394219 0 23.660886-15.747659 39.515992-39.515992 39.515992-23.660886 0-47.403636-15.85613-47.403636-39.515992C450.688097 295.214628 474.430848 279.577486 498.091734 279.577486zM277.148669 358.487697c-23.660886 0-47.539736-15.85613-47.539736-39.515992 0-23.756053 23.87885-39.394219 47.539736-39.394219 23.660886 0 39.406498 15.637142 39.406498 39.394219C316.556191 342.631568 300.809555 358.487697 277.148669 358.487697z" p-id="3764" fill="#1afa29"></path><path d="M955.968046 611.237165c0-126.217656-126.299521-229.102908-268.155343-229.102908-150.204977 0-268.509407 102.885252-268.509407 229.102908 0 126.435621 118.303406 229.101885 268.509407 229.101885 31.439036 0 63.150272-7.927553 94.724385-15.841803l86.592171 47.416939-23.741727-78.895885C908.756791 745.477542 955.968046 682.436764 955.968046 611.237165zM600.756975 571.733453c-15.719007 0-31.574113-15.637142-31.574113-31.588439 0-15.733333 15.855106-31.574113 31.574113-31.574113 23.87885 0 39.515992 15.841803 39.515992 31.574113C640.272967 556.096311 624.635825 571.733453 600.756975 571.733453zM774.405897 571.733453c-15.609513 0-31.356149-15.637142-31.356149-31.588439 0-15.733333 15.746636-31.574113 31.356149-31.574113 23.660886 0 39.515992 15.841803 39.515992 31.574113C813.921889 556.096311 798.066783 571.733453 774.405897 571.733453z" p-id="3765" fill="#1afa29"></path></svg>
