<svg t="1504732009059" class="icon" style="" viewBox="0 0 1152 1024" version="1.1" xmlns="http://www.w3.org/2000/svg" p-id="20885" xmlns:xlink="http://www.w3.org/1999/xlink" width="30" height="30"><defs><style type="text/css"></style></defs><path d="M1005.9008 526.7456h-185.6v-184.8832c0-81.1008-65.28-147.072-145.5872-147.072a39.936 39.936 0 0 0-39.7056 40.1152 39.936 39.936 0 0 0 39.68 40.1152c36.5312 0 66.2016 29.952 66.2016 66.8416v601.6768H411.136v-416.768h-0.256v-184.9088c0-36.864 29.696-66.8416 66.176-66.8416a39.936 39.936 0 0 0 39.7056-40.1152 39.936 39.936 0 0 0-39.68-40.1152c-80.3328 0-145.6384 65.9712-145.6384 147.072v184.8832H146.0992c-80.3072 0-145.6128 66.048-145.6128 147.1488V1023.744h1151.0272V673.8944c0-81.1264-65.3312-147.1488-145.6128-147.1488zM79.9232 943.5392V673.8944c0-36.864 29.696-66.9184 66.176-66.9184h185.344v336.5632H79.8976z m740.4032 0V606.976h185.5744c36.5056 0 66.176 30.0288 66.176 66.9184v269.6448h-251.7504zM463.5392 104.5248c0-14.7712 11.8272-26.7264 26.4704-26.7264h53.1968V27.648c0-14.7712 11.8528-26.7264 26.496-26.7264 14.6176 0 26.4704 11.9552 26.4704 26.7264V77.824h53.1968c14.6432 0 26.4704 11.9552 26.4704 26.7264 0 14.7968-11.8272 26.752-26.4704 26.752h-53.1968v50.1504c0 14.7712-11.8528 26.7264-26.4704 26.7264a26.5984 26.5984 0 0 1-26.496-26.7264v-50.176h-53.1968a26.5984 26.5984 0 0 1-26.4704-26.7264z m92.928 290.816a39.936 39.936 0 0 1-39.7312 40.1152H472.064a39.936 39.936 0 0 1-39.7056-40.1152 39.936 39.936 0 0 1 39.7056-40.1152h44.672a39.936 39.936 0 0 1 39.7312 40.1152z m0 160.4608a39.936 39.936 0 0 1-39.7312 40.1152h-52.9408a39.936 39.936 0 0 1-39.7056-40.1152 39.936 39.936 0 0 1 39.7056-40.1152h52.9408a39.936 39.936 0 0 1 39.7312 40.1152z m-287.0784 160.4352a39.936 39.936 0 0 1-39.7312 40.1152H176.7168a39.936 39.936 0 0 1-39.7056-40.1152 39.936 39.936 0 0 1 39.7056-40.1152h52.9408a39.936 39.936 0 0 1 39.7312 40.1152z m741.2736 0a39.936 39.936 0 0 1-39.7312 40.1152H918.016a39.936 39.936 0 0 1-39.7056-40.1152 39.936 39.936 0 0 1 39.7056-40.1152h52.9408a39.936 39.936 0 0 1 39.7312 40.1152zM715.52 395.3408a39.936 39.936 0 0 1-39.68 40.1152h-44.6976a39.936 39.936 0 0 1-39.7056-40.1152 39.936 39.936 0 0 1 39.7056-40.1152H675.84a39.936 39.936 0 0 1 39.7056 40.1152z m0 160.4608a39.936 39.936 0 0 1-39.68 40.1152h-52.9664a39.936 39.936 0 0 1-39.7056-40.1152 39.936 39.936 0 0 1 39.7056-40.1152H675.84a39.936 39.936 0 0 1 39.7056 40.1152z m-159.0784 160.4352a39.936 39.936 0 0 1-39.7312 40.1152h-52.9408a39.936 39.936 0 0 1-39.7056-40.1152 39.936 39.936 0 0 1 39.7056-40.1152h52.9408a39.936 39.936 0 0 1 39.7312 40.1152z m159.0784 0a39.936 39.936 0 0 1-39.68 40.1152h-52.9664a39.936 39.936 0 0 1-39.7056-40.1152 39.936 39.936 0 0 1 39.7056-40.1152H675.84a39.936 39.936 0 0 1 39.7056 40.1152z" p-id="20886" fill="#fcd800"></path></svg>
