<svg t="1504732071390" class="icon" style="" viewBox="0 0 1024 1024" version="1.1" xmlns="http://www.w3.org/2000/svg" p-id="21494" xmlns:xlink="http://www.w3.org/1999/xlink" width="30" height="30"><defs><style type="text/css"></style></defs><path d="M675.952 204.909H204.902c22.711 0 41.01-18.339 41.01-40.896V860.12c0-22.596-18.241-40.896-40.958-40.896H819.3c-22.623 0-40.958 18.383-40.958 40.896V164.013c0 22.573 18.242 40.896 41.01 40.896h-143.4zM819.352 123c22.59 0 40.902 18.467 40.902 41.013V860.12c0 22.65-18.265 41.013-40.954 41.013H204.954c-22.618 0-40.954-18.468-40.954-41.013V164.013c0-22.65 18.345-41.013 40.903-41.013h614.449z" p-id="21495" fill="#fcd800"></path><path d="M696.43 430.158v-81.91H348.303v81.91zM696.43 675.884v-81.91H348.303v81.91z" p-id="21496" fill="#fcd800"></path></svg>
