<?xml version="1.0" standalone="no"?><!DOCTYPE svg PUBLIC "-//W3C//DTD SVG 1.1//EN" "http://www.w3.org/Graphics/SVG/1.1/DTD/svg11.dtd"><svg t="1504951186166" class="icon" style="" viewBox="0 0 1024 1024" version="1.1" xmlns="http://www.w3.org/2000/svg" p-id="4519" xmlns:xlink="http://www.w3.org/1999/xlink" width="200" height="200"><defs><style type="text/css"></style></defs><path d="M696.037 820.341h-0.013l-3.324-0.074c-77.326-3.957-181.757-76.737-279.377-194.697l-36.055-43.554c-97.623-117.968-148.765-233.184-136.807-308.206 8.443-52.928 87.132-97.595 132.095-97.595 22.147 0 30.172 11.021 32.975 17.601 25.454 45.236 56.95 123.902 57.095 152.113l0.010 2.010-0.721 1.876c-5.614 14.829-18.174 21.933-29.258 28.202-14.598 8.249-22.896 13.666-23.908 29.261-0.303 4.736 3.78 26.265 68.184 105.658l27.532 33.247c64.584 76.216 84.905 84.424 89.662 85.101 15.57 2.164 22.906-4.662 34.107-16.941 8.527-9.349 18.199-19.959 34.162-22.298l2.019-0.289 1.989 0.426c28.124 5.931 100.113 52.323 140.983 86.771 5.899 3.913 16.196 15.543 8.041 41.227-12.79 40.336-68.553 100.163-119.394 100.163v0 0zM696.037 820.341z" p-id="4520"></path></svg>