<svg t="1504731623843" class="icon" style="" viewBox="0 0 1030 1024" version="1.1" xmlns="http://www.w3.org/2000/svg" p-id="11173" xmlns:xlink="http://www.w3.org/1999/xlink" width="30" height="30"><defs><style type="text/css"></style></defs><path d="M512 0c-283.031 0-512 228.969-512 512s228.969 512 512 512c283.031 0 512-228.969 512-512-1.59-283.031-230.559-512-512-512zM542.211 812.521h-90.634v-90.634h90.634v90.634zM648.745 454.757c-9.54 17.491-28.621 38.161-55.652 65.193-28.621 27.031-46.112 47.702-50.882 58.832-4.77 11.13-7.95 30.211-7.95 60.422l7.95 23.851h-90.634l-1.59-25.441c1.59-30.211 6.36-57.242 14.311-77.913 9.54-22.261 28.621-47.702 57.242-77.913 27.031-27.031 42.932-47.702 49.292-57.242 4.77-9.54 7.95-20.671 7.95-36.571 0-22.261-6.36-39.752-20.671-52.472-14.311-12.72-33.391-20.671-58.832-20.671-54.062 0-73.143 38.161-77.913 106.534h-90.634v-9.54c1.59-31.801 4.77-55.652 12.72-74.733s19.081-36.571 36.571-52.472c17.491-15.901 36.571-27.031 57.242-33.391 20.671-6.36 41.342-11.13 63.602-11.13 46.112 0 85.863 14.311 116.075 41.342 30.211 27.031 46.112 65.193 46.112 111.304 0 23.851-4.77 44.522-14.311 62.012z" p-id="11174" fill="#f4ea2a"></path></svg>
