<svg fill="#707378" class="icon" style="" viewBox="0 0 1024 1024" version="1.1" xmlns="http://www.w3.org/2000/svg" p-id="1004" xmlns:xlink="http://www.w3.org/1999/xlink" width="38" height="38"><defs><style type="text/css"></style></defs><path d="M511.936 93.248c68.608 0 126.784 53.376 147.328 127.488l68.096 0c-13.568-106.816-104.832-189.504-215.424-189.504-110.528 0-201.792 82.688-215.36 189.504l68.16 0C385.216 146.624 443.456 93.248 511.936 93.248zM852.416 921.28l-53.184-641.92-72.384 0-59.84 0-310.08 0-59.904 0-74.816 0-50.752 642.624c-0.384 2.816-0.64 5.696-0.64 8.64 0 34.432 30.528 62.208 68.224 62.208l546.048 0c37.568 0 68.224-27.776 68.224-62.208C853.248 927.552 852.992 924.416 852.416 921.28z" p-id="1005"></path></svg>
