<svg t="1504732745075" class="icon" style="" viewBox="0 0 1024 1024" version="1.1" xmlns="http://www.w3.org/2000/svg" p-id="26328" xmlns:xlink="http://www.w3.org/1999/xlink" width="30" height="30"><defs><style type="text/css"></style></defs><path d="M847.7 175.9H175.6c-61.9 0-112 50.2-112 112v56h896.2v-56c-0.1-61.8-50.2-112-112.1-112zM63.6 736c0 61.9 50.2 112 112 112h672.1c61.9 0 112-50.2 112-112V400H63.6v336z m364-220c9-2.3 18.3-4 28-4 61.9 0 112 50.2 112 112s-50.2 112-112 112c-9.7 0-19-1.6-28-4 48.2-12.5 84-55.9 84-108.1 0.1-52-35.7-95.4-84-107.9z m-140-4c61.9 0 112 50.2 112 112s-50.2 112-112 112-112-50.2-112-112 50.2-112 112-112z" p-id="26329" fill="#fcd800"></path></svg>
