<svg t="1504806660133" class="icon" style="" viewBox="0 0 1024 1024" version="1.1" xmlns="http://www.w3.org/2000/svg" p-id="3055" xmlns:xlink="http://www.w3.org/1999/xlink" width="30" height="30"><defs><style type="text/css"></style></defs><path d="M719.874421 501.890758c-33.880645-6.573719-17.414625-24.809035-17.414625-24.809035s33.153074-54.640458-6.560416-94.366228c-49.212842-49.199539-168.801521 6.261611-168.80152 6.261611-45.673226 14.172791-33.568537-6.469342-27.112498-41.597397 0-41.391712-14.172791-111.442138-135.846968-70.066799C242.584967 318.913377 138.222061 464.665948 138.222061 464.665948c-72.574922 96.850815-62.97017 171.70464-62.97017 171.704641C93.383854 801.61919 268.966824 846.980307 405.530107 857.717859c143.6814 11.270694 337.590761-49.52495 396.397098-174.426634 58.792011-125.107369-48.055482-174.621063-82.052784-181.400467zM416.164305 811.119565c-142.628418 6.66377-257.935584-64.85817-257.935584-160.043043 0-95.28925 115.308189-171.70464 257.935584-178.278359 142.731772-6.570649 258.260995 52.233642 258.260995 147.32744 0 95.17157-115.529223 184.513364-258.260995 190.993962z" p-id="3056" fill="#d81e06"></path><path d="M387.710252 535.560602c-143.459343 16.790408-126.878712 151.165862-126.878712 151.165861s-1.468444 42.549072 38.461987 64.220651c83.938738 45.465494 170.364109 17.937534 214.045981-38.449707 43.681872-56.409754 18.038842-193.610556-125.629256-176.936805z m-36.183083 188.600449c-26.787086 3.137457-48.368614-12.299117-48.368614-34.71157 0-22.309098 19.173688-45.673226 45.97203-48.471968 30.769794-2.926656 50.788733 14.800078 50.788734 37.21253 0 22.308075-21.709441 42.939975-48.39215 45.971008z m84.561931-72.04178c-9.071609 6.78145-20.237927 5.843078-25.028023-2.290159-4.997827-7.927553-3.124154-20.645203 6.050809-27.320229 10.636245-7.91425 21.684882-5.637394 26.474978 2.303462 4.804423 8.121981 1.36816 20.317745-7.497764 27.306926zM789.730419 443.708638c11.558244 0 21.386076-8.55177 23.038716-19.704785a9.69378 9.69378 0 0 0 0.312108-2.499937c17.519002-157.528779-129.077797-130.419352-129.077797-130.419351-13.013385 0-23.452131 10.531867-23.452132 23.662932 0 12.925381 10.438747 23.455201 23.452132 23.455202 105.298208-23.2444 82.064041 82.053808 82.06404 82.053807 0 13.026688 10.608615 23.452131 23.662933 23.452132z" p-id="3057" fill="#d81e06"></path><path d="M772.640182 163.635871c-50.682309-11.870352-102.811574 0.916882-117.4162 3.714601-1.12973 0.104377-2.185782 2.449795-3.225461 2.65855-0.509606 0.104377-0.820692 1.263783-0.820692 1.263783-14.394848 4.073782-24.926716 17.721617-24.926715 33.471322 0 18.768459 15.21554 34.365692 34.192753 34.365693 0 0 18.457374-2.393513 30.967292-7.287987 12.403494-4.997827 117.389594-3.680832 169.530115 83.887572 28.453029 63.908542 12.509918 106.699114 10.518564 113.570615 0 0-6.768147 16.619516-6.768147 32.965809 0 18.872836 15.225773 25.623587 34.075073 25.623588 15.761985 0 28.999474-6.284123 32.864502-33.913391h0.207731c55.979966-185.218422-68.502164-269.156136-159.198815-290.320155z" p-id="3058" fill="#d81e06"></path></svg>
